# xmcd
#
# Track frame offsets:
#	150
#	11882
#	32099
#	43859
#	61763
#	74888
#	93377
#	108410
#	121647
#	132905
#	148636
#	163309
#	190636
#
# Disc length: 2796 seconds
#
# Revision: 0
# Processed by: cddbd v1.4PL0 Copyright (c) Steve Scherf et al.
# Submitted via: dBpowerAMP V4.0
#
DISCID=ba0aea0d
DTITLE=Shane Worley - Rosie's On A Roll
DYEAR=1900
DGENRE=Country
TTITLE0=The Final Touch
TTITLE1=The Easy Part Of Heartache
TTITLE2=Blues Singer With A Red Guitar
TTITLE3=Over The Hill
TTITLE4=She's Got It And Gone
TTITLE5=Reflections In A Bottle
TTITLE6=Lord, Let Me Settle Down
TTITLE7=Yesterday's Hero
TTITLE8=Rosie's On A Roll
TTITLE9=All Fall Down
TTITLE10=Up In Coke
TTITLE11=Wine, Women And Song
TTITLE12=DATA
EXTD=
EXTT0=
EXTT1=
EXTT2=
EXTT3=
EXTT4=
EXTT5=
EXTT6=
EXTT7=
EXTT8=
EXTT9=
EXTT10=
EXTT11=
EXTT12=
PLAYORDER=
